<svg xmlns="http://www.w3.org/2000/svg" viewBox="0 0 24 24" width="24" height="24">
  <defs>
    <linearGradient id="a" x1="1.6" y1="7.5" x2="22.4" y2="7.5" gradientUnits="userSpaceOnUse">
      <stop offset="0" stop-color="#d93025"/><stop offset="1" stop-color="#ea4335"/>
    </linearGradient>
    <linearGradient id="b" x1="10.4" y1="23.8" x2="20.8" y2="5.8" gradientUnits="userSpaceOnUse">
      <stop offset="0" stop-color="#fcc934"/><stop offset="1" stop-color="#fbbc04"/>
    </linearGradient>
    <linearGradient id="c" x1="13.3" y1="23.2" x2="2.9" y2="5.2" gradientUnits="userSpaceOnUse">
      <stop offset="0" stop-color="#1e8e3e"/><stop offset="1" stop-color="#34a853"/>
    </linearGradient>
  </defs>
  <circle cx="12" cy="12" r="6" fill="#fff"/>
  <path d="M12 6h10.4a12 12 0 0 0-20.8 0L6.8 15l.005-.001A6 6 0 0 1 12 6z" fill="url(#a)"/>
  <circle cx="12" cy="12" r="4.75" fill="#1a73e8"/>
  <path d="M17.2 15 12 24a12 12 0 0 0 10.4-18H12l-.001.005A6 6 0 0 1 17.2 15z" fill="url(#b)"/>
  <path d="M6.8 15 1.6 6A12 12 0 0 0 12 24l5.2-9-.003-.003a6 6 0 0 1-10.4-.004z" fill="url(#c)"/>
</svg>
